PathFileType	4	(x/y/z)	S04_BK_Cal.trc
DataRate	CameraRate	NumFrames	NumMarkers	Units	OrigDataRate	OrigDataStartFrame	OrigNumFrames
240	240	4	51	mm	240	1501	2400
Frame#	Time	Sternum			R.Acromium			L.Acromium			Top.Head			R.ASIS			L.ASIS			R.PSIS			L.PSIS			R.Great.Tro			L.Great.Tro			R.Iliac.Crest			L.Iliac.Crest			V.Sacral			R.Thigh.Upper.Post			R.Thigh.Lower.Ant			R.Thigh.Lower.Post			R.Thigh.Upper.Ant			R.Knee.Lat			R.Knee.Med			R.Shank.Upper.Post			R.Shank.Lower.Ant			R.Shank.Lower.Post			R.Shank.Upper.Ant			R.Ankle.Lat			R.Ankle.Med			R.Heel.Upper			R.Heel.Med			R.Heel.Lat			R.Toe.Lat			R.Toe.Med			R.Toe.Tip			L.Thigh.Upper.Post			L.Thigh.Lower.Ant			L.Thigh.Lower.Post			L.Thigh.Upper.Ant			L.Knee.Lat			L.Knee.Med			L.Shank.Upper.Post			L.Shank.Lower.Ant			L.Shank.Lower.Post			L.Shank.Upper.Ant			L.Ankle.Lat			L.Ankle.Med			L.Heel.Upper			L.Heel.Med			L.Heel.Lat			L.Toe.Lat			L.Toe.Med			L.Toe.Tip			Cervical.Spine			Back			
		X1	Y1	Z1	X2	Y2	Z2	X3	Y3	Z3	X4	Y4	Z4	X5	Y5	Z5	X6	Y6	Z6	X7	Y7	Z7	X8	Y8	Z8	X9	Y9	Z9	X10	Y10	Z10	X11	Y11	Z11	X12	Y12	Z12	X13	Y13	Z13	X14	Y14	Z14	X15	Y15	Z15	X16	Y16	Z16	X17	Y17	Z17	X18	Y18	Z18	X19	Y19	Z19	X20	Y20	Z20	X21	Y21	Z21	X22	Y22	Z22	X23	Y23	Z23	X24	Y24	Z24	X25	Y25	Z25	X26	Y26	Z26	X27	Y27	Z27	X28	Y28	Z28	X29	Y29	Z29	X30	Y30	Z30	X31	Y31	Z31	X32	Y32	Z32	X33	Y33	Z33	X34	Y34	Z34	X35	Y35	Z35	X36	Y36	Z36	X37	Y37	Z37	X38	Y38	Z38	X39	Y39	Z39	X40	Y40	Z40	X41	Y41	Z41	X42	Y42	Z42	X43	Y43	Z43	X44	Y44	Z44	X45	Y45	Z45	X46	Y46	Z46	X47	Y47	Z47	X48	Y48	Z48	X49	Y49	Z49	X50	Y50	Z50	X51	Y51	Z51	

1501	6.25	345.83	1221.5	292.93	222.21	1450.8	473.54	200.66	1440.7	127.44	221.55	1771.2	291.13	313.72	937.4	432.46	314.06	951.76	184.21	100.78	977.25	334.13	107.68	980.42	251.18	225.21	865.11	499.49	202.1	869.47	114.59	235.15	1030.9	473.86	217.82	1035.9	137.69	82.826	937.04	292.58	301.52	615.59	513.23	401.92	561.1	490.66	331.84	529.73	502.16	372.74	667.52	503.34	370.76	470.29	495.91	359.25	458.79	368.41	231.07	287.43	505.22	264.79	188.12	463.67	205.62	221.46	492.36	288.5	255	485.21	166.79	110.67	478.1	190.77	115.71	388.81	97.986	75.979	421.42	108.39	45.049	392.38	98.575	44.695	456.82	263.73	39.807	519.27	311.39	39.437	402.91	369.39	55.994	457.1	259.12	634.97	104.55	368.23	572.9	89.848	299.8	554.81	106.87	323.64	652.19	86.36	365.4	478.66	100.36	380.5	456.4	224.25	230.04	342.46	93.343	266.42	237.67	86.859	209.75	267.25	94.651	286.73	311.48	83.966	179.06	104.93	97.865	187.05	111.22	192	101.45	73.272	141.46	108.68	47.538	174.9	105.22	46.305	112.97	288.01	42.589	69.681	321.63	47.854	184.72	377.78	57.106	134	168.84	1494.1	305.02	88.488	1238.8	287.21
1502	6.2542	345.84	1221.5	292.94	222.21	1450.8	473.54	200.67	1440.8	127.44	221.57	1771.2	291.13	313.69	937.4	432.47	314.05	951.77	184.22	100.76	977.27	334.14	107.66	980.43	251.19	225.18	865.12	499.5	202.09	869.49	114.6	235.14	1031	473.87	217.82	1035.9	137.7	82.806	937.07	292.58	301.49	615.59	513.24	401.89	561.12	490.67	331.81	529.74	502.17	372.71	667.53	503.35	370.73	470.3	495.92	359.22	458.8	368.42	231.05	287.43	505.22	264.78	188.12	463.67	205.61	221.46	492.36	288.49	255	485.21	166.79	110.66	478.1	190.77	115.71	388.82	97.984	75.975	421.42	108.39	45.044	392.39	98.573	44.692	456.82	263.73	39.807	519.27	311.39	39.439	402.91	369.38	55.997	457.1	259.11	634.98	104.56	368.22	572.91	89.872	299.78	554.82	106.89	323.63	652.2	86.379	365.38	478.67	100.38	380.46	456.4	224.27	230.03	342.47	93.353	266.41	237.67	86.869	209.74	267.25	94.661	286.72	311.48	83.981	179.06	104.93	97.867	187.05	111.22	192	101.45	73.27	141.46	108.67	47.537	174.9	105.22	46.304	112.97	288.01	42.589	69.682	321.63	47.854	184.72	377.78	57.107	134	168.84	1494.1	305.01	88.487	1238.9	287.21
1503	6.2583	345.85	1221.5	292.95	222.22	1450.9	473.54	200.67	1440.8	127.43	221.58	1771.2	291.12	313.67	937.41	432.49	314.04	951.78	184.24	100.75	977.29	334.15	107.65	980.45	251.19	225.15	865.14	499.51	202.07	869.5	114.61	235.12	1031	473.87	217.81	1035.9	137.71	82.787	937.09	292.58	301.46	615.6	513.26	401.85	561.13	490.68	331.77	529.75	502.18	372.68	667.53	503.36	370.7	470.3	495.93	359.19	458.81	368.43	231.03	287.42	505.22	264.77	188.13	463.68	205.59	221.45	492.37	288.47	255.01	485.22	166.78	110.66	478.1	190.76	115.71	388.82	97.982	75.971	421.42	108.39	45.038	392.39	98.571	44.689	456.83	263.73	39.807	519.27	311.39	39.441	402.91	369.38	56	457.1	259.09	634.99	104.57	368.2	572.92	89.894	299.76	554.83	106.91	323.61	652.21	86.396	365.36	478.68	100.4	380.42	456.4	224.29	230.02	342.47	93.364	266.4	237.68	86.878	209.73	267.26	94.671	286.71	311.49	83.995	179.06	104.93	97.868	187.05	111.22	192	101.45	73.269	141.46	108.67	47.535	174.9	105.22	46.303	112.97	288.01	42.59	69.683	321.63	47.853	184.72	377.78	57.109	134	168.84	1494.2	305.01	88.485	1238.9	287.21
1504	6.2625	345.85	1221.5	292.95	222.22	1450.9	473.54	200.67	1440.8	127.43	221.6	1771.2	291.11	313.65	937.42	432.5	314.02	951.79	184.25	100.73	977.31	334.15	107.63	980.47	251.19	225.12	865.16	499.52	202.06	869.52	114.62	235.11	1031	473.88	217.8	1035.9	137.72	82.768	937.11	292.58	301.44	615.61	513.27	401.82	561.14	490.69	331.74	529.76	502.18	372.65	667.54	503.36	370.67	470.31	495.93	359.16	458.82	368.44	231	287.41	505.22	264.76	188.13	463.68	205.57	221.45	492.37	288.45	255.02	485.23	166.78	110.65	478.11	190.76	115.71	388.82	97.98	75.967	421.42	108.39	45.032	392.39	98.568	44.685	456.83	263.73	39.807	519.27	311.39	39.442	402.91	369.38	56.003	457.1	259.08	635	104.58	368.19	572.93	89.915	299.74	554.84	106.92	323.6	652.22	86.414	365.34	478.7	100.42	380.39	456.4	224.31	230.01	342.47	93.373	266.39	237.68	86.886	209.72	267.26	94.679	286.7	311.49	84.008	179.06	104.93	97.87	187.05	111.22	192.01	101.45	73.267	141.46	108.67	47.534	174.9	105.22	46.302	112.97	288.01	42.591	69.684	321.63	47.852	184.72	377.78	57.11	134.01	168.84	1494.2	305	88.482	1238.9	287.22
